{"title":"The Following S02E03 HDTV x264 AAC [GWC].mp4","uid":9565826,"size":156777544,"categoryP":"video","categoryS":"tv_shows","magnet":"?xt=urn:btih:eb8e6220174912752e04419bf88ee7b8c156e3c6&amp;dn=The+Following+S02E03+HDTV+x264+AAC+%5BGWC%5D.mp4&amp;tr=udp%3A%2F%2Ftracker.openbittorrent.com%3A80&amp;tr=udp%3A%2F%2Fopen.demonii.com%3A1337&amp;tr=udp%3A%2F%2Ftracker.coppersurfer.tk%3A6969&amp;tr=udp%3A%2F%2Fexodus.desync.com%3A6969","seeders":3,"leechers":0,"uploader":"canc232","files":1,"time":1391510096,"description":"The Following S02E03 HDTV x264 AAC [GWC].mp4\n\n\nSCREENS : &lt;a href=&quot;\nhttp://s20.postimg.org/f44p9xwfx/The_Following_S02_E03_HDTV_x264_AAC_GWC_14_48_4.jpg&quot; rel=&quot;nofollow&quot; target=&quot;_NEW&quot;&gt;\nhttp://s20.postimg.org/f44p9xwfx/The_Following_S02_E03_HDTV_x264_AAC_GWC_14_48_4.jpg&lt;/a&gt; &lt;a href=&quot;\nhttp://s20.postimg.org/8rpk03tdp/The_Following_S02_E03_HDTV_x264_AAC_GWC_14_48_5.jpg&quot; rel=&quot;nofollow&quot; target=&quot;_NEW&quot;&gt;\nhttp://s20.postimg.org/8rpk03tdp/The_Following_S02_E03_HDTV_x264_AAC_GWC_14_48_5.jpg&lt;/a&gt; &lt;a href=&quot;\nhttp://s20.postimg.org/3ubzezrel/The_Following_S02_E03_HDTV_x264_AAC_GWC_14_50_5.jpg&quot; rel=&quot;nofollow&quot; target=&quot;_NEW&quot;&gt;\nhttp://s20.postimg.org/3ubzezrel/The_Following_S02_E03_HDTV_x264_AAC_GWC_14_50_5.jpg&lt;/a&gt;\n\n\nMEDIA INFO :\nGeneral \nFormat profile : Base Media \nFile size : 150 MiB \nDuration : 43mn 28s \nOverall bit rate mode : Variable \nOverall bit rate : 481 Kbps \n\nVideo \nFormat : AVC \nFormat profile : &lt;a class=&quot;__cf_email__&quot; href=&quot;/cdn-cgi/l/email-protection&quot; data-cfemail=&quot;4109282629010d726f71&quot;&gt;[email&amp;#160;protected]&lt;/a&gt;&lt;script cf-hash='f9e31' type=&quot;text/javascript&quot;&gt;\n/* &lt;![CDATA[ */!function(){try{var t=&quot;currentScript&quot;in document?document.currentScript:function(){for(var t=document.getElementsByTagName(&quot;script&quot;),e=t.length;e--;)if(t[e].getAttribute(&quot;cf-hash&quot;))return t[e]}();if(t&amp;&amp;t.previousSibling){var e,r,n,i,c=t.previousSibling,a=c.getAttribute(&quot;data-cfemail&quot;);if(a){for(e=&quot;&quot;,r=parseInt(a.substr(0,2),16),n=2;a.length-n;n+=2)i=parseInt(a.substr(n,2),16)^r,e+=String.fromCharCode(i);e=document.createTextNode(e),c.parentNode.replaceChild(e,c)}}}catch(u){}}();/* ]]&gt; */&lt;/script&gt; \nFormat settings, CABAC : Yes \nFormat settings, ReFrames : 4 frames \nDuration : 43mn 28s \nBit rate : 418 Kbps \nMaximum bit rate : 2 134 Kbps \nWidth : 720 pixels \nHeight : 404 pixels \nDisplay aspect ratio : 16:9 \nFrame rate : 23.976 fps \nStream size : 130 MiB (87%) \nTitle : The Following S02E03 HDTV x264 AAC [GWC] \nWriting library : x264 core\n\nAudio \nFormat : AAC \nFormat profile : HE-AAC / LC \nDuration : 43mn 28s \nBit rate mode : Variable \nChannel(s) : 2 channels \nSampling rate : 48.0 KHz / 24.0 KHz \nStream size : 18.7 MiB (12%) \nLanguage : English \n","torrent":{"xt":"urn:btih:eb8e6220174912752e04419bf88ee7b8c156e3c6","amp;dn":"The+Following+S02E03+HDTV+x264+AAC+%5BGWC%5D.mp4","amp;tr":["udp%3A%2F%2Ftracker.openbittorrent.com%3A80","udp%3A%2F%2Fopen.demonii.com%3A1337","udp%3A%2F%2Ftracker.coppersurfer.tk%3A6969","udp%3A%2F%2Fexodus.desync.com%3A6969"],"infoHash":"eb8e6220174912752e04419bf88ee7b8c156e3c6","infoHashBuffer":{"type":"Buffer","data":[235,142,98,32,23,73,18,117,46,4,65,155,248,142,231,184,193,86,227,198]},"announce":[],"urlList":[]}}